<svg enable-background="new 0 0 814.01 657.55" viewBox="0 0 814.01 657.55" xmlns="http://www.w3.org/2000/svg" xmlns:xlink="http://www.w3.org/1999/xlink"><clipPath id="a"><path d="m537.55 305.9c0 65.46-53.06 118.52-118.52 118.52s-118.52-53.07-118.52-118.52 53.06-181.83 118.52-181.83 118.52 116.37 118.52 181.83z"/></clipPath><path d="m289.28 559.67c-89.82-45.46-152.41-136.9-156.83-243.36" style="fill:none;stroke:#0067e8;stroke-width:2;stroke-linecap:round;stroke-linejoin:round;stroke-dasharray:7 7"/><path d="m300.16 564.89c-4.19-4.38-8.96-10.69-11.22-16.02l-1.06 10.06-7.25 7.05c5.59-1.52 13.5-1.67 19.53-1.09z" fill="#0067e8"/><path d="m132.2 304.24c2.25 5.62 6.02 12.58 9.94 16.85l-9.6-3.2-9.42 3.68c3.7-4.47 7.11-11.6 9.08-17.33z" fill="#0067e8"/><path d="m703.68 324.99c-6.97 97.23-62.52 181-142.5 227.19" style="fill:none;stroke:#0067e8;stroke-width:2;stroke-linecap:round;stroke-linejoin:round;stroke-dasharray:7 7"/><path d="m704.29 312.93c-2.42 5.55-6.4 12.39-10.44 16.54l9.69-2.91 9.3 3.96c-3.56-4.57-6.76-11.8-8.55-17.59z" fill="#0067e8"/><path d="m550.6 558c3.94-4.6 8.35-11.17 10.32-16.62l1.61 9.99 7.63 6.64c-5.66-1.21-13.57-.93-19.56-.01z" fill="#0067e8"/><path d="m180.39 145.26c51.33-76.66 138.73-127.14 237.92-127.14 94.43 0 178.18 45.75 230.28 116.29" style="fill:none;stroke:#0067e8;stroke-width:2;stroke-linecap:round;stroke-linejoin:round;stroke-dasharray:7 7"/><path d="m173.89 155.43c4.85-3.63 11.7-7.6 17.26-9.2l-9.86-2.27-6.12-8.05c.83 5.74.03 13.61-1.28 19.52z" fill="#0067e8"/><path d="m655.56 144.27c-5.01-3.4-12.03-7.05-17.67-8.39l9.74-2.72 5.74-8.32c-.56 5.76.61 13.58 2.19 19.43z" fill="#0067e8"/><path d="m156.03 236.87c.46-4.12 0-64.58 0-64.58h45c3.89 0 7.47 2.09 9.39 5.47l17.43 30.75c.35.62.53 1.31.53 2.02v45.15c0 2.26-1.83 4.09-4.09 4.09h-68.27v-22.9z" fill="#0067e8"/><path d="m192.1 236.87c.46-4.12 0-64.58 0-64.58h8.93c3.89 0 7.47 2.09 9.39 5.47l17.43 30.75c.35.62.53 1.31.53 2.02v45.15c0 2.26-1.83 4.09-4.09 4.09h-32.19z" fill="#0055bf"/><circle cx="177.09" cy="264.33" fill="#34233c" r="21.54"/><circle cx="177.09" cy="264.33" fill="#fff" r="7.61"/><path d="m167.47 186.71v26.76c0 2.5 2.02 4.52 4.52 4.52h33.6 13.17v-7.25c0-.84-.24-1.67-.68-2.39l-14.94-24.03c-.82-1.33-2.28-2.13-3.84-2.13h-27.32c-2.48 0-4.51 2.02-4.51 4.52z" fill="#fff"/><path d="m30.81 158.92h114.23v79.5h-114.23z" fill="#0067e8"/><path d="m29.96 237.67h126.02v14.23h-126.02z" fill="#34233c"/><circle cx="76.9" cy="264.33" fill="#34233c" r="21.54"/><circle cx="76.9" cy="264.33" fill="#fff" r="7.61"/><path d="m145.04 238.42v-79.5h-89.68l51.05 52.44v27.06z" fill="#0055bf"/><path d="m779.93 273.88h-157.5c-4.32 0-7.82-3.5-7.82-7.82v-13.08h173.14v13.08c-.01 4.32-3.51 7.82-7.82 7.82z" fill="#34233c"/><path d="m787.74 260.05h-173.14v-89.1c0-6.37 5.16-11.53 11.53-11.53h150.08c6.37 0 11.53 5.16 11.53 11.53z" fill="#0070fe"/><path d="m775.78 252.98h-149.21c-2.98 0-5.39-2.41-5.39-5.39v-76.56c0-2.98 2.41-5.39 5.39-5.39h149.21c2.98 0 5.39 2.41 5.39 5.39v76.56c0 2.98-2.41 5.39-5.39 5.39z" fill="#fff"/><path d="m684.84 273.88h32.67v6.24h-32.67z" fill="#0055bf"/><path d="m680.62 280.13h41.11v4.04h-41.11z" fill="#0072f5"/><path d="m675.2 165.65 105.97 71.35v-27.53l-65.26-43.82z" fill="#ecf4fb"/><path d="m634.98 165.65 125.61 87.33h10.17l-127.24-87.33z" fill="#ecf4fb"/><path d="m670.54 194.19-.07 18.9c-.01 1.7 1.24 3.15 2.93 3.39l51.91 7.41c2.62.37 5.09-1.32 5.68-3.89l6.63-28.71z" fill="#d64141"/><path d="m670.54 194.19 67.09-2.9-6.34 28.9c-.02.09-.04.18-.07.27-.8 2.86-4.06 4.24-6.75 2.97z" fill="#ff5753"/><path d="m670.41 228.01 59.11.22" fill="none" stroke="#002655" stroke-linecap="round" stroke-linejoin="round" stroke-miterlimit="10"/><circle cx="725.08" cy="237.93" fill="#ffc347" r="5.38"/><path d="m724.24 228.21h1.71v11.3h-1.71z" fill="#002655" transform="matrix(-1 -.00372154 .00372154 -1 1449.3141 470.4128)"/><circle cx="680.46" cy="237.76" fill="#ffc347" r="5.38"/><path d="m679.62 228.04h1.71v11.3h-1.71z" fill="#002655" transform="matrix(-1 -.00372154 .00372154 -1 1360.0677 469.9146)"/><path d="m751.97 176.76-12.23 5.08-10.22 46.39" fill="none" stroke="#002655" stroke-linecap="round" stroke-linejoin="round" stroke-miterlimit="10"/><path d="m742.36 182.33 11.37-4.67c.74-.3 1.09-1.15.79-1.89-.3-.74-1.15-1.09-1.89-.79l-10.03 4.12c-.74.3-1.09 1.15-.79 1.89z" fill="#e8b200"/><path d="m332.1 493.98h157.38v125.1h-157.38z" fill="#0067e8"/><path d="m514.33 534.73h-207.08l16.89-40.75h173.29z" fill="#ff5753"/><path d="m356.88 568.17h44.25v50.91h-44.25z" fill="#fff"/><path d="m332.1 534.73v26.08l157.38-26.08z" fill="#0055bf"/><path d="m529.2 575.66.1 25.63c.01 2.31-1.69 4.27-3.98 4.6l-70.43 10.06c-3.55.51-6.9-1.79-7.71-5.28l-9-38.94z" fill="#ffc347"/><path d="m529.2 575.66-91.01-3.94 8.6 39.21c.03.12.06.24.09.36 1.08 3.88 5.51 5.75 9.15 4.02z" fill="#f39719"/><path d="m529.37 621.54-80.18.3" fill="none" stroke="#34233c" stroke-miterlimit="10" stroke-width="3"/><circle cx="455.21" cy="635" fill="#ff5753" r="7.3"/><path d="m454.04 621.81h2.32v15.32h-2.32z" fill="#34233c" transform="matrix(1 -.00372154 .00372154 1 -2.3395 1.6984)"/><circle cx="515.75" cy="634.77" fill="#ff5753" r="7.3"/><path d="m514.57 621.59h2.32v15.32h-2.32z" fill="#34233c" transform="matrix(1 -.00372154 .00372154 1 -2.3382 1.9237)"/><path d="m418.74 552.02 16.59 6.88 13.86 62.94" fill="none" stroke="#34233c" stroke-miterlimit="10" stroke-width="3"/><path d="m430.82 559.17-15.32-6.29c-.53-.22-.78-.82-.56-1.35l.7-1.71c.22-.53.82-.78 1.35-.56l15.32 6.29c.53.22.78.82.56 1.35l-.7 1.71c-.22.53-.82.78-1.35.56z" fill="#34233c"/><path d="m307.25 534.73 16.89-40.75h173.29z" fill="#34233c"/><g fill="#ff5753"><path d="m326.07 534.73c0 5.2-4.21 9.41-9.41 9.41s-9.41-4.21-9.41-9.41"/><path d="m344.9 534.73c0 5.2-4.21 9.41-9.41 9.41s-9.41-4.21-9.41-9.41"/><path d="m363.72 534.73c0 5.2-4.21 9.41-9.41 9.41s-9.41-4.21-9.41-9.41"/><path d="m382.55 534.73c0 5.2-4.21 9.41-9.41 9.41s-9.41-4.21-9.41-9.41"/><path d="m401.37 534.73c0 5.2-4.21 9.41-9.41 9.41s-9.41-4.21-9.41-9.41"/><path d="m420.2 534.73c0 5.2-4.21 9.41-9.41 9.41s-9.41-4.21-9.41-9.41"/><path d="m439.02 534.73c0 5.2-4.21 9.41-9.41 9.41s-9.41-4.21-9.41-9.41"/><path d="m457.85 534.73c0 5.2-4.21 9.41-9.41 9.41s-9.41-4.21-9.41-9.41"/><path d="m476.68 534.73c0 5.2-4.21 9.41-9.41 9.41s-9.41-4.21-9.41-9.41"/><path d="m495.5 534.73c0 5.2-4.21 9.41-9.41 9.41s-9.41-4.21-9.41-9.41"/><path d="m514.33 534.73c0 5.2-4.21 9.41-9.41 9.41s-9.41-4.21-9.41-9.41"/></g><circle cx="418.31" cy="304.43" fill="#d2e9ff" r="119.98"/><g clip-path="url(#a)"><path d="m461.13 216.92c0-26.33-20.09-47.68-44.87-47.68s-44.87 21.35-44.87 47.68c0 0-.09 11.12-12.78 15.39-5.96 2-11.02 6.54-13.32 12.72-1.86 5-2.42 11.38 1.06 18.61 4.17 8.65 3.18 19.07-3.05 26.19-2.36 2.7-5.28 5.71-8.88 9.04-5.47 5.05-7.74 13.2-5.31 20.45 1.97 5.89 7.03 11.2 18.85 11.2h130.54s14.46-14.43 6.45-39.32c-2.25-7-6.44-13.07-11.6-18.04-5.21-5.02-12.48-14.93-12.38-31.09z" fill="#34233c"/><path d="m547.64 251.14h134.9v134.9h-134.9z" fill="#fac348"/><path d="m682.54 251.14h54.74v134.9h-54.74z" fill="#e9a01e"/><g fill="#e2a091"><path d="m666.8 321.68 3.15-4.28c.32-.43.23-1.04-.21-1.36l-18.72-13.76c-.43-.32-1.04-.23-1.36.21l-3.15 4.28c-.32.43-.23 1.04.21 1.36l18.72 13.76c.44.32 1.04.23 1.36-.21z"/><path d="m659.91 321.87 1.75-3.84c.18-.39.01-.85-.38-1.02l-27.28-12.42c-.39-.18-.85-.01-1.02.38l-1.75 3.84c-.18.39-.01.85.38 1.02l27.28 12.42c.38.18.84 0 1.02-.38z"/><path d="m657.74 331.72 1-4.1c.1-.41-.15-.83-.57-.93l-29.12-7.11c-.41-.1-.83.15-.93.57l-1 4.1c-.1.41.15.83.57.93l29.12 7.11c.41.1.83-.16.93-.57z"/><path d="m659.57 336.77.61-4.18c.06-.42-.23-.81-.65-.88l-21.55-3.12c-.42-.06-.81.23-.88.65l-.61 4.18c-.06.42.23.81.65.88l21.55 3.12c.42.06.82-.23.88-.65z"/><path d="m657.7 326.47 1.38-3.99c.14-.4-.08-.84-.48-.98l-30.81-10.62c-.4-.14-.84.08-.98.48l-1.38 3.99c-.14.4.08.84.48.98l30.81 10.62c.4.14.84-.08.98-.48z"/></g><path d="m856.98 431.04h-132.45v-181.08c0-9.8 7.95-17.75 17.75-17.75h96.94c9.8 0 17.75 7.95 17.75 17.75v181.08z" fill="#0067e8"/><path d="m783.85 202.88h-33.78c-3.81 0-6.9-3.09-6.9-6.9v-44.62c0-3.81 3.09-6.9 6.9-6.9h33.78c3.81 0 6.9 3.09 6.9 6.9l-.28 47.66c.01 3.81-2.81 3.86-6.62 3.86z" fill="#e2a091"/><path d="m761.49 189.37h32.27v50.36h-32.27z" fill="#e2a091" transform="matrix(.9723 -.2339 .2339 .9723 -28.6114 187.8192)"/><path d="m755.82 220.76h57.56v24.68h-57.56z" fill="#0067e8"/><path d="m824.3 363.83-48.85-22.13 40.52-81.33 23.43 10.61c13.93 6.31 21.3 19.79 16.31 29.8z" fill="#0067e8"/><path d="m675.14 345.09-23.73-8.72 3.02-20.51 8.58-4.76 18.54 7.54z" fill="#e2a091"/><path d="m766.96 155.79 15.02 64.97h13.73l-5.23-21.75.28-19.83v-27.82z" fill="#d3897d"/><path d="m782.07 193.94s-1.55.67 2.53-.91c14.08-5.45 23.94-19.37 23.33-35.51-.72-18.93-16.15-34.36-35.08-35.08-20.82-.79-37.96 15.86-37.96 36.51h47.09v13.35" fill="#0070fe"/><path d="m781.98 163.2h-50.34c-1.1 0-1.99-.89-1.99-1.99v-5.43h52.33z" fill="#34233c"/><path d="m856.98 294.58v136.46l-90.02-53.6 60.6-30.15z" fill="#0055bf"/><path d="m670.61 343.42 8.12-25.93 148.83 29.79-3.3 16.83c-2.96 15.1-17.6 24.93-32.7 21.97z" fill="#e2a091"/><path d="m656.6 337.12 130.1 47.53c16.14 5.9 33.76-3.86 37.32-20.67l3.54-16.69z" fill="#d3897d"/><path d="m777.62 337.12 38.34-76.75-52.04 74.18z" fill="#0055bf"/><path d="m700.45 728.45 24.08-297.41h71.18l-52.18 297.41z" fill="#ff5753"/><path d="m856.98 431.04 6.53 297.41h-41.3l-66.39-297.41z" fill="#ff5753"/><path d="m-12.23 588.03-24.6 174.01h24.6l41.05-174.01z" fill="#e2a091"/><path d="m55.28 588.03h40.56l-6.06 162.6h-25.63z" fill="#e2a091"/><path d="m-34.04 654.33h152.73l-23.98-207.04h-73.56l-14.8 31.29c-12.32 26.05-20.88 53.71-25.43 82.17z" fill="#34233c"/><path d="m20.61 654.33h98.08l-23.98-207.04h-50.12z" fill="#ff5753"/><path d="m-21.6 654.33 26.95 33.21 7.83-33.21z" fill="#d3897d"/><path d="m61.31 698.59 28.47 52.04 3.59-96.3h-34.47z" fill="#d3897d"/><path d="m755.82 431.04 1.7 217.68 20.1-114.57z" fill="#34233c"/><path d="m724.16 430.14h139.26v10.86h-139.26z" fill="#fff"/><path d="m490.71 455.19h-158.16v-120.92c0-23.39 18.96-42.35 42.35-42.35h73.47c23.39 0 42.35 18.96 42.35 42.35v120.92z" fill="#fac348"/><path d="m376.09 455.19h-43.54v-120.84c0-23.43 18.99-42.42 42.42-42.42" fill="#e9a01e"/><path d="m425.72 262.75c-14.17 0-25.67-11.49-25.67-25.66v-25.29c0-14.17 11.49-25.66 25.66-25.66 14.17 0 25.66 11.49 25.66 25.66v25.28c.01 14.18-11.48 25.67-25.65 25.67z" fill="#e2a091"/><path d="m416.52 307.18c9.1 0 16.47-7.37 16.47-16.47v-45.66h-32.94v45.66c0 9.1 7.38 16.47 16.47 16.47z" fill="#e2a091"/><circle cx="395.84" cy="227.12" fill="#d3897d" r="10.34"/><path d="m413.27 207.76v99.42c-8.08 0-14.63-6.55-14.63-14.63v-55.09-29.7z" fill="#d3897d"/><path d="m395.84 227.08s29.88 2.24 39.54-27.07h19.75l-10.84-18.9-48.99 1.42.54 34.08z" fill="#34233c"/></g><path d="m602.83 233.56-43.28 43.28" style="fill:none;stroke:#0067e8;stroke-width:2;stroke-linecap:round;stroke-linejoin:round;stroke-dasharray:7 7"/><path d="m551.01 285.37c2.53-5.51 4.97-13.03 5.36-18.81l4.29 9.16 9.16 4.29c-5.78.39-13.3 2.83-18.81 5.36z" fill="#0067e8"/><path d="m243.34 237.72 34.96 34.96" style="fill:none;stroke:#0067e8;stroke-width:2;stroke-linecap:round;stroke-linejoin:round;stroke-dasharray:7 7"/><path d="m286.83 281.21c-5.51-2.53-13.03-4.97-18.81-5.36l9.16-4.29 4.29-9.16c.4 5.78 2.84 13.31 5.36 18.81z" fill="#0067e8"/><path d="m418.6 484.19v-43.15" style="fill:none;stroke:#0067e8;stroke-width:2;stroke-linecap:round;stroke-linejoin:round;stroke-dasharray:7 7"/><path d="m418.6 428.97c2.11 5.68 5.7 12.73 9.51 17.09l-9.51-3.44-9.51 3.44c3.81-4.36 7.41-11.41 9.51-17.09z" fill="#0067e8"/></svg>